# xmcd
#
# Track frame offsets:
#	150
#	15780
#	28730
#	43627
#	57982
#	74157
#	86682
#	101905
#	117055
#	134142
#	149035
#	162135
#
# Disc length: 2364 seconds
#
# Revision: 2
# Processed by: cddbd v1.5PL3 Copyright (c) Steve Scherf et al.
# Submitted via: audiograbber 1.83.01
#
DISCID=af093a0c
DTITLE=Los Mendivil - Te Amo Y Te Amare
DYEAR=1900
DGENRE=Latin
TTITLE0=Te Amo Y Te Amare
TTITLE1=El Muchaco Alegre
TTITLE2=Te Voy A Hacer El Amor
TTITLE3=Mujer Ladina
TTITLE4=Bendito Mal
TTITLE5=Vino Maldito
TTITLE6=Suegra
TTITLE7=Ayer Sin Los Niños
TTITLE8=Hace Un Año
TTITLE9=Vas A Pagar
TTITLE10=Por Ti
TTITLE11=Nunca Lo Sepas
EXTD=
EXTT0=
EXTT1=
EXTT2=
EXTT3=
EXTT4=
EXTT5=
EXTT6=
EXTT7=
EXTT8=
EXTT9=
EXTT10=
EXTT11=
PLAYORDER=
